# Blender v2.93.4 OBJ File: ''
# www.blender.org
o Sphere_Sphere.003
v -0.000000 0.353271 -0.158330
v -0.000000 0.281372 -0.247637
v -0.000000 -0.282837 -0.252179
v -0.000000 -0.355046 -0.158330
v 0.111956 0.353271 -0.111956
v 0.175106 0.281372 -0.175106
v 0.178318 -0.282837 -0.178318
v 0.111956 -0.355046 -0.111956
v 0.158330 0.353271 0.000000
v 0.247637 0.281372 -0.000000
v 0.252179 -0.282837 0.000000
v 0.158330 -0.355046 0.000000
v 0.111956 0.353271 0.111956
v 0.175106 0.281372 0.175106
v 0.178318 -0.282837 0.178318
v 0.111956 -0.355046 0.111956
v -0.000000 0.353271 0.158330
v 0.000000 0.281372 0.247637
v 0.000000 -0.282837 0.252179
v -0.000000 -0.355046 0.158330
v 0.111956 -0.403803 -0.111956
v -0.111956 0.353271 0.111956
v -0.175106 0.281372 0.175106
v -0.178318 -0.282837 0.178318
v -0.111956 -0.355046 0.111956
v -0.158330 0.353271 -0.000000
v -0.247637 0.281372 -0.000000
v -0.252179 -0.282837 0.000000
v -0.158330 -0.355046 0.000000
v -0.111956 0.353271 -0.111956
v -0.175106 0.281372 -0.175106
v -0.178318 -0.282837 -0.178318
v -0.111956 -0.355046 -0.111956
v -0.000000 -0.208089 -0.289815
v -0.000000 0.206314 -0.289815
v 0.204930 0.206314 -0.204930
v 0.204930 -0.208089 -0.204930
v 0.289815 0.206314 -0.000000
v 0.289815 -0.208089 -0.000000
v 0.204930 0.206314 0.204930
v 0.204930 -0.208089 0.204930
v -0.000000 0.206314 0.289815
v -0.000000 -0.208089 0.289815
v -0.204930 0.206314 0.204930
v -0.204930 -0.208089 0.204930
v -0.289815 0.206314 -0.000000
v -0.289815 -0.208089 -0.000000
v -0.204930 0.206314 -0.204930
v -0.204930 -0.208089 -0.204930
v 0.111956 0.408261 -0.111956
v -0.000000 0.408261 -0.158330
v 0.158330 0.408261 0.000000
v 0.111956 0.408261 0.111956
v -0.000000 0.408261 0.158330
v -0.000000 0.408261 0.000000
v -0.111956 0.408261 0.111956
v -0.158330 0.408261 -0.000000
v -0.111956 0.408261 -0.111956
v -0.000000 -0.403803 0.000000
v -0.000000 -0.403803 -0.158330
v 0.158330 -0.403803 0.000000
v 0.111956 -0.403803 0.111956
v -0.000000 -0.403803 0.158330
v -0.111956 -0.403803 0.111956
v -0.158330 -0.403803 0.000000
v -0.111956 -0.403803 -0.111956
vt 0.750000 0.166667
vt 0.750000 0.333333
vt 0.625000 0.333333
vt 0.625000 0.166667
vt 0.875000 0.333333
vt 0.875000 0.394538
vt 0.750000 0.394538
vt 0.500000 0.833333
vt 0.625000 0.833333
vt 0.625000 0.833333
vt 0.500000 0.833333
vt 0.375000 0.166667
vt 0.250000 0.166667
vt 0.250000 0.166667
vt 0.375000 0.166667
vt 0.625000 0.605462
vt 0.625000 0.666667
vt 0.500000 0.666667
vt 0.500000 0.605462
vt 0.750000 0.666667
vt 0.750000 0.833333
vt 0.625000 0.394538
vt 0.500000 0.394538
vt 0.500000 0.333333
vt 0.125000 0.833333
vt 0.250000 0.833333
vt 0.250000 0.833333
vt 0.125000 0.833333
vt 1.000000 0.166667
vt 0.875000 0.166667
vt 0.875000 0.166667
vt 1.000000 0.166667
vt 0.375000 0.666667
vt 0.375000 0.605462
vt 0.500000 0.166667
vt 0.875000 0.833333
vt 1.000000 0.833333
vt 1.000000 0.833333
vt 0.875000 0.833333
vt 0.125000 0.166667
vt 0.000000 0.166667
vt 0.000000 0.166667
vt 0.125000 0.166667
vt 0.250000 0.666667
vt 0.250000 0.605462
vt 0.375000 0.833333
vt 0.375000 0.333333
vt 0.375000 0.394538
vt 0.625000 0.166667
vt 0.750000 0.166667
vt 0.125000 0.666667
vt 0.125000 0.605462
vt 0.250000 0.333333
vt 0.250000 0.394538
vt 0.375000 0.833333
vt 0.500000 0.166667
vt 0.000000 0.666667
vt 0.000000 0.605462
vt 0.125000 0.333333
vt 0.125000 0.394538
vt 1.000000 0.605462
vt 1.000000 0.666667
vt 0.875000 0.666667
vt 0.875000 0.605462
vt 0.000000 0.833333
vt 0.000000 0.333333
vt 0.000000 0.394538
vt 0.000000 0.833333
vt 1.000000 0.333333
vt 1.000000 0.394538
vt 0.750000 0.833333
vt 0.750000 0.605462
vt 0.312500 1.000000
vt 0.812500 1.000000
vt 0.562500 1.000000
vt 0.687500 0.000000
vt 0.437500 0.000000
vt 0.187500 0.000000
vt 0.937500 0.000000
vt 0.062500 1.000000
vn 0.0000 -0.4909 -0.8712
vn 0.0000 -0.6115 -0.7913
vn 0.5595 -0.6115 -0.5595
vn 0.6160 -0.4909 -0.6160
vn -0.5595 -0.6115 -0.5595
vn -0.6899 -0.2193 -0.6899
vn 0.0000 -0.2193 -0.9756
vn 0.8778 0.4790 0.0000
vn 0.6207 0.4790 -0.6207
vn 0.5490 0.6302 -0.5490
vn 0.7764 0.6302 0.0000
vn 0.6160 -0.4909 0.6160
vn 0.0000 -0.4909 0.8712
vn 0.0000 -0.6302 0.7764
vn 0.5490 -0.6302 0.5490
vn 0.6865 0.2392 -0.6865
vn 0.5525 0.6240 -0.5525
vn 0.7814 0.6240 0.0000
vn 0.9709 0.2392 0.0000
vn 0.0000 0.6240 -0.7814
vn 0.0000 0.4790 -0.8778
vn 0.6899 -0.2193 -0.6899
vn 0.9756 -0.2193 0.0000
vn 0.7913 -0.6115 0.0000
vn -0.6207 0.4790 0.6207
vn 0.0000 0.4790 0.8778
vn 0.0000 0.6302 0.7764
vn -0.5490 0.6302 0.5490
vn -0.8712 -0.4909 0.0000
vn -0.6160 -0.4909 -0.6160
vn -0.5490 -0.6302 -0.5490
vn -0.7764 -0.6302 0.0000
vn 0.5525 0.6240 0.5525
vn 0.6865 0.2392 0.6865
vn 0.8712 -0.4909 0.0000
vn -0.6207 0.4790 -0.6207
vn -0.8778 0.4790 0.0000
vn -0.7764 0.6302 0.0000
vn -0.5490 0.6302 -0.5490
vn -0.6160 -0.4909 0.6160
vn -0.5490 -0.6302 0.5490
vn 0.0000 0.6240 0.7814
vn 0.0000 0.2392 0.9709
vn 0.6207 0.4790 0.6207
vn 0.5595 -0.6115 0.5595
vn 0.6899 -0.2193 0.6899
vn 0.5490 -0.6302 -0.5490
vn 0.0000 -0.6302 -0.7764
vn -0.5525 0.6240 0.5525
vn -0.6865 0.2392 0.6865
vn 0.0000 -0.6115 0.7913
vn 0.0000 -0.2193 0.9756
vn 0.5490 0.6302 0.5490
vn 0.7764 -0.6302 0.0000
vn -0.7814 0.6240 0.0000
vn -0.9709 0.2392 0.0000
vn -0.5595 -0.6115 0.5595
vn -0.6899 -0.2193 0.6899
vn -0.5525 0.6240 -0.5525
vn -0.6865 0.2392 -0.6865
vn -0.7913 -0.6115 0.0000
vn -0.9756 -0.2193 0.0000
vn 0.0000 0.6302 -0.7764
vn 0.0000 0.2392 -0.9709
vn 0.0000 1.0000 0.0000
vn 0.0000 -1.0000 0.0000
s 1
f 4/1/1 3/2/2 7/3/3 8/4/4
f 32/5/5 49/6/6 34/7/7 3/2/2
f 9/8/8 5/9/9 50/10/10 52/11/11
f 16/12/12 20/13/13 63/14/14 62/15/15
f 36/16/16 6/17/17 10/18/18 38/19/19
f 2/20/20 1/21/21 5/9/9 6/17/17
f 7/3/3 37/22/22 39/23/23 11/24/24
f 22/25/25 17/26/26 54/27/27 56/28/28
f 29/29/29 33/30/30 66/31/31 65/32/32
f 38/19/19 10/18/18 14/33/33 40/34/34
f 6/17/17 5/9/9 9/8/8 10/18/18
f 8/4/4 7/3/3 11/24/24 12/35/35
f 30/36/36 26/37/37 57/38/38 58/39/39
f 25/40/40 29/41/29 65/42/32 64/43/41
f 40/34/34 14/33/33 18/44/42 42/45/43
f 10/18/18 9/8/8 13/46/44 14/33/33
f 12/35/35 11/24/24 15/47/45 16/12/12
f 11/24/24 39/23/23 41/48/46 15/47/45
f 4/1/1 8/4/4 21/49/47 60/50/48
f 42/45/43 18/44/42 23/51/49 44/52/50
f 14/33/33 13/46/44 17/26/26 18/44/42
f 16/12/12 15/47/45 19/53/51 20/13/13
f 15/47/45 41/48/46 43/54/52 19/53/51
f 17/26/26 13/46/44 53/55/53 54/27/27
f 12/35/35 16/12/12 62/15/15 61/56/54
f 44/52/50 23/51/49 27/57/55 46/58/56
f 18/44/42 17/26/26 22/25/25 23/51/49
f 20/13/13 19/53/51 24/59/57 25/40/40
f 19/53/51 43/54/52 45/60/58 24/59/57
f 13/46/44 9/8/8 52/11/11 53/55/53
f 33/30/30 4/1/1 60/50/48 66/31/31
f 46/61/56 27/62/55 31/63/59 48/64/60
f 23/51/49 22/25/25 26/65/37 27/57/55
f 25/40/40 24/59/57 28/66/61 29/41/29
f 24/59/57 45/60/58 47/67/62 28/66/61
f 26/65/37 22/25/25 56/28/28 57/68/38
f 27/62/55 26/37/37 30/36/36 31/63/59
f 29/29/29 28/69/61 32/5/5 33/30/30
f 28/69/61 47/70/62 49/6/6 32/5/5
f 1/21/21 30/36/36 58/39/39 51/71/63
f 8/4/4 12/35/35 61/56/54 21/49/47
f 31/63/59 30/36/36 1/21/21 2/20/20
f 33/30/30 32/5/5 3/2/2 4/1/1
f 35/72/64 2/20/20 6/17/17 36/16/16
f 5/9/9 1/21/21 51/71/63 50/10/10
f 20/13/13 25/40/40 64/43/41 63/14/14
f 3/2/2 34/7/7 37/22/22 7/3/3
f 37/22/22 34/7/7 35/72/64 36/16/16
f 39/23/23 37/22/22 36/16/16 38/19/19
f 38/19/19 40/34/34 41/48/46 39/23/23
f 40/34/34 42/45/43 43/54/52 41/48/46
f 42/45/43 44/52/50 45/60/58 43/54/52
f 44/52/50 46/58/56 47/67/62 45/60/58
f 46/61/56 48/64/60 49/6/6 47/70/62
f 34/7/7 49/6/6 48/64/60 35/72/64
f 48/64/60 31/63/59 2/20/20 35/72/64
f 55/73/65 54/27/27 53/55/53 52/11/11
f 55/74/65 51/71/63 58/39/39 57/38/38
f 55/75/65 52/11/11 50/10/10 51/71/63
f 21/49/47 61/56/54 59/76/66 60/50/48
f 62/15/15 63/14/14 59/77/66 61/56/54
f 64/43/41 65/42/32 59/78/66 63/14/14
f 66/31/31 60/50/48 59/79/66 65/32/32
f 55/80/65 57/68/38 56/28/28 54/27/27
